# xmcd
#
# Track frame offsets: 
#        151
#        19112
#        39243
#        57587
#        72724
#        88997
#        107124
#        124739
#        141784
#        161718
#        181179
#        197373
#        217883
#        237546
#        252410
#        271633
#        289469
#        301299
#        319074
#
# Disc length: 4460 seconds
#
# Revision: 0
# Processed by: cddbd v1.5.1PL0 Copyright (c) Steve Scherf et al.
# Submitted via: ExactAudioCopy v0.95a3
#
DISCID=1d116a13
DTITLE=Various Artist - Звёздный Серпантин От Русской Дискотеки
DYEAR=2000
DGENRE=Pop
TTITLE0=Вирус - Нарисуй
TTITLE1=Гости Из Будущего - Это Сильнее Меня
TTITLE2=Света - Увидимся 2000
TTITLE3=Охо-Хо - Небо
TTITLE4=Алсу and E. Iglesias - You're My #1 (Inter Mix)
TTITLE5=Никита - Мелодия Души
TTITLE6=Динамит - Ла-Ла-Ла
TTITLE7=Алла Горбачёва - Besame Mucho (Remake)
TTITLE8=О. Канайкина - Вот И Всё
TTITLE9=Хамелеон - Листья
TTITLE10=Shura - Осень
TTITLE11=Александр Буйнов - Люби, Как В Последний Раз
TTITLE12=Алла Пугачёва - Девочка SH
TTITLE13=Заплатки - Согрешила
TTITLE14=Саша - Любовь - Это Война
TTITLE15=Владимир Пресняков - Любовь На Video
TTITLE16=Мэд Дог - Твой IQ
TTITLE17=Dagaz - Приходи
TTITLE18=Леонид Агутин - Луна
EXTD=
EXTT0=
EXTT1=
EXTT2=
EXTT3=
EXTT4=
EXTT5=
EXTT6=
EXTT7=
EXTT8=
EXTT9=
EXTT10=
EXTT11=
EXTT12=
EXTT13=
EXTT14=
EXTT15=
EXTT16=
EXTT17=
EXTT18=
PLAYORDER=
